<?xml version="1.0"?>
<svg xmlns="http://www.w3.org/2000/svg" viewBox="0 0 64 64" width="512" height="512">
    <title>12 View</title>
    <g id="_12_View" data-name="12 View" fill='#fff'>
        <path
            d="M60.894,31.448C60.468,30.528,50.2,8.956,32,8.956S3.531,30.528,3.105,31.448a1.288,1.288,0,0,0,0,1.017C3.531,33.385,13.8,54.956,32,54.956s28.469-21.571,28.9-22.491A1.275,1.275,0,0,0,60.894,31.448ZM32,43.9a11.943,11.943,0,1,1,0-23.885V31.956H44A11.971,11.971,0,0,1,32,43.9Z"
            style="fill:none" />
        <path
            d="M34,29.956V18.014H32A13.93,13.93,0,0,0,30,45.74V41.7a9.932,9.932,0,0,1,0-19.484V33.956H41.8A10,10,0,0,1,34,41.691V45.74A13.972,13.972,0,0,0,46,31.956v-2Z" />
        <path
            d="M62.638,30.46C61.642,28.365,51.7,8.425,34,7v4.025c11.147,1.066,20.343,11.614,24.919,20.931C53.825,42.327,43.864,52.993,32,52.993c-11.812,0-21.784-10.585-26.918-21.037C9.693,22.566,18.881,12.089,30,11.025V7C12.31,8.425,2.363,28.352,1.361,30.458a3.287,3.287,0,0,0-.008,2.978C2.339,35.514,13,57,32,57c18.976,0,29.637-21.438,30.644-23.556A3.278,3.278,0,0,0,62.638,30.46Z" />
    </g>
</svg>
