<svg id="line" height="512" viewBox="0 0 64 64" width="512" xmlns="http://www.w3.org/2000/svg"><path d="m58 23h-26.586l-7.707-7.707a1 1 0 0 0 -1.707.707v7h-2a5 5 0 0 0 -5 5v30a5 5 0 0 0 5 5h38a5 5 0 0 0 5-5v-30a5 5 0 0 0 -5-5zm-29.409 32.865a1 1 0 0 1 -1.366-.364l-7.09-12.24a1 1 0 0 1 .009-1.017l7.089-11.76a1 1 0 0 1 1.713 1.032l-6.785 11.254 6.794 11.73a1 1 0 0 1 -.364 1.365zm16.109-24.495-9.545 24a1 1 0 0 1 -1.859-.74l9.545-24a1 1 0 0 1 1.859.74zm13.165 11.891-7.09 12.239a1 1 0 1 1 -1.73-1l6.794-11.73-6.785-11.254a1 1 0 0 1 1.713-1.032l7.089 11.76a1 1 0 0 1 .009 1.017z" fill="#c4a2fc"/><g fill="#151a6a"><path d="m36.086 17.611a1 1 0 0 0 -1.414 0l-10.172 10.172-5.172-5.172a1 1 0 0 0 -1.414 0l-4.242 4.243a1 1 0 0 0 0 1.414l10.121 10.121a1 1 0 0 0 1.414 0l15.121-15.121a1 1 0 0 0 0-1.414zm-11.586 18.657-8.707-8.707 2.828-2.829 5.172 5.168a1 1 0 0 0 1.414 0l10.172-10.168 2.828 2.829z"/><path d="m26 1a25 25 0 1 0 25 25 25.028 25.028 0 0 0 -25-25zm0 48a23 23 0 1 1 23-23 23.026 23.026 0 0 1 -23 23z"/></g></svg>