<svg id="filled_outline" height="512" viewBox="0 0 512 512" width="512" xmlns="http://www.w3.org/2000/svg" data-name="filled outline"><g fill="#548aff"><path d="m24 120 16 16v48l48 48h16v-56l56-16v-48l-16-16 16-24v-32h-56l-24 24h-56z"/><path d="m192 32v40l16 32 32-24v-48z"/><path d="m128 240 16 16v80h32l32-72v-32l-24-24h-56z"/><path d="m264 168 40 48h24v32l-32 56h-40v-56l-40-48v-32z"/><path d="m440 56h48v64l-72 32v32l-24 16v16l8 24-8 8-32-24v-32h-40l-40-48h-48v-24l32-24h16l40-40h32l16-16h40l16 16z"/><path d="m408 272 16-16h32l16 16v48h-24l-40-24z"/></g><path d="m24 384h48v48h-48z" fill="#ffb401"/><path d="m72 432 64 24v-96l-64 24z" fill="#ffc431"/><circle cx="176" cy="408" fill="#ffc431" r="16"/><path d="m32 432v40l8 8h16v-48z" fill="#ffa100"/><path d="m32 139.31348v44.68652a8.00235 8.00235 0 0 0 2.34277 5.65723l48 48a8.00235 8.00235 0 0 0 5.65723 2.34277h16a8.00039 8.00039 0 0 0 8-8v-49.96582l18.19824-5.19922-4.39648-15.38476-24 6.85742a8.00054 8.00054 0 0 0 -5.80176 7.69238v48h-4.68652l-43.31348-43.31348v-44.68652a8.00235 8.00235 0 0 0 -2.34277-5.65723l-13.65723-13.65625v-44.68652h48a8.00235 8.00235 0 0 0 5.65723-2.34277l21.65625-21.65723h44.68652v21.57812l-14.65625 21.98438a8.00082 8.00082 0 0 0 .999 10.09473l13.65725 13.65625v20.68652h16v-24a8.00235 8.00235 0 0 0 -2.34277-5.65723l-11.36323-11.3623 12.3623-18.543a8.00221 8.00221 0 0 0 1.3437-4.43747v-32a8.00039 8.00039 0 0 0 -8-8h-56a8.00235 8.00235 0 0 0 -5.65723 2.34277l-21.65625 21.65723h-52.68652a8.00039 8.00039 0 0 0 -8 8v56a8.00235 8.00235 0 0 0 2.34277 5.65723z"/><path d="m248 80v-48a8.00039 8.00039 0 0 0 -8-8h-48a8.00039 8.00039 0 0 0 -8 8v40a7.99934 7.99934 0 0 0 .84473 3.57812l16 32a8.0004 8.0004 0 0 0 11.95507 2.82227l32-24a8.0009 8.0009 0 0 0 3.2002-6.40039zm-16-4-21.13184 15.84863-10.86816-21.7373v-30.11133h32z"/><path d="m152 216v-16h-24a8.00039 8.00039 0 0 0 -8 8v32a8.00235 8.00235 0 0 0 2.34277 5.65723l13.65723 13.65625v76.68652a8.00039 8.00039 0 0 0 8 8h16v-16h-8v-72a8.00235 8.00235 0 0 0 -2.34277-5.65723l-13.65723-13.65625v-20.68652z"/><path d="m260.25293 176 37.60156 45.12109a7.99862 7.99862 0 0 0 6.14551 2.87891h8v-16h-4.25293l-37.60156-45.12109a7.99862 7.99862 0 0 0 -6.14551-2.87891h-48a8.00039 8.00039 0 0 0 -8 8v32a7.99881 7.99881 0 0 0 1.85449 5.12109l38.14551 45.77539v53.10352a8.00039 8.00039 0 0 0 8 8h32v-16h-24v-48a7.99881 7.99881 0 0 0 -1.85449-5.12109l-38.14551-45.77539v-21.10352z"/><path d="m488 48h-60.68652l-13.65625-13.65723a8.00235 8.00235 0 0 0 -5.65723-2.34277h-40a8.00235 8.00235 0 0 0 -5.65723 2.34277l-13.65625 13.65723h-28.68652a8.00235 8.00235 0 0 0 -5.65723 2.34277l-37.65625 37.65723h-12.68652a8.0033 8.0033 0 0 0 -4.7998 1.59961l-32 24a8.0009 8.0009 0 0 0 -3.2002 6.40039v24a8.00039 8.00039 0 0 0 8 8h44.25293l37.60156 45.12109 12.291-10.24218-40-48a7.99862 7.99862 0 0 0 -6.14549-2.87891h-40v-12l26.667-20h13.333a8.00235 8.00235 0 0 0 5.65723-2.34277l37.65625-37.65723h28.68652a8.00235 8.00235 0 0 0 5.65723-2.34277l13.65625-13.65723h33.373l13.65625 13.65723a8.00235 8.00235 0 0 0 5.65727 2.34277h56v50.80078l-67.249 29.88867a8.00131 8.00131 0 0 0 -4.751 7.31055v27.71875l-20.4375 13.625a7.99943 7.99943 0 0 0 -3.5625 6.65625v16a8.0151 8.0151 0 0 0 .41016 2.53027l6.124 18.37012-15.06736-11.30078-9.59961 12.80078 21.333 16a8.00143 8.00143 0 0 0 10.457-.74316l8-8a8.00185 8.00185 0 0 0 1.93261-8.1875l-7.5898-22.76758v-10.4209l20.4375-13.625a7.99943 7.99943 0 0 0 3.5625-6.65625v-26.80078l67.249-29.88867a8.00131 8.00131 0 0 0 4.751-7.31055v-64a8.00039 8.00039 0 0 0 -8-8z"/><path d="m456 312v16h16a8.00039 8.00039 0 0 0 8-8v-48a8.00235 8.00235 0 0 0 -2.34277-5.65723l-16-16a8.00235 8.00235 0 0 0 -5.65723-2.34277h-32a8.00235 8.00235 0 0 0 -5.65723 2.34277l-16 16a8.00235 8.00235 0 0 0 -2.34277 5.65723v24h16v-20.68652l11.31348-11.31348h25.373l11.31352 11.31348v36.68652z"/><path d="m24 440v32a8.00235 8.00235 0 0 0 2.34277 5.65723l8 8a8.00235 8.00235 0 0 0 5.65723 2.34277h16a8.00039 8.00039 0 0 0 8-8v-40h6.55078l62.64063 23.49023a7.99971 7.99971 0 0 0 10.80859-7.49023v-40h9.37622a23.99486 23.99486 0 0 0 45.24756 0h60.95239a215.9302 215.9302 0 0 0 195.67283-124.61719l-14.498-6.76562a199.93143 199.93143 0 0 1 -181.17483 115.38281h-33.84082a256.42416 256.42416 0 0 0 126.26465-220.92383v-51.07617h-16v51.07617a240.38654 240.38654 0 0 1 -138.72681 217.83325 24.158 24.158 0 0 0 -10.70556-10.45092 252.98217 252.98217 0 0 0 9.50073-131.50635 253.0074 253.0074 0 0 0 -63.90527-125.1416l-14.32715-15.28223-11.67188 10.94336 14.32715 15.28223a237.04035 237.04035 0 0 1 59.86914 117.23828 237.01288 237.01288 0 0 1 -10.16382 126.72143 24.09376 24.09376 0 0 0 -16.82031 15.28638h-9.37622v-40a7.99971 7.99971 0 0 0 -10.80859-7.49023l-62.64063 23.49023h-46.55078a8.00039 8.00039 0 0 0 -8 8v48a8.00039 8.00039 0 0 0 8 8zm152-40a8 8 0 1 1 -8 8 8.00917 8.00917 0 0 1 8-8zm-128 72h-4.68652l-3.31348-3.31348v-28.68652h8zm80-27.54395-48-17.99951v-36.91308l48-17.99946zm-96-52.45605h32v32h-32z"/></svg>